# xmcd
#
# Track frame offsets:
#      150
#      8315
#      17515
#      25427
#      36442
#      46827
#      55305
#      66107
#      74805
#      84912
#      96950
# 
# Disc length: 1429 seconds
#
# Revision: 2
# Processed by: cddbd v1.4PL0 Copyright (c) Steve Scherf et al.
#
# Submitted via: FreeRIP 1.20
#
DISCID=8805930b
DTITLE=Roger Miller - Roger Miller: The Hits
DYEAR=1900
DGENRE=country
TTITLE0=Dang Me
TTITLE1=Chug-A-Lug
TTITLE2=Do Wacka Do
TTITLE3=King of the Road
TTITLE4=Engine Engine
TTITLE5=England Swings
TTITLE6=Husbands and Wifes
TTITLE7=You Can't Roller Skate in a Buffalo Herd
TTITLE8=Tall, Tall Trees
TTITLE9=Walkin' in the Sunshine
TTITLE10=Got 2 Again
EXTD=
EXTT0=
EXTT1=
EXTT2=
EXTT3=
EXTT4=
EXTT5=
EXTT6=
EXTT7=
EXTT8=
EXTT9=
EXTT10=
PLAYORDER=
